<svg width="50px" height="50px" viewBox="0 0 94 94" version="1.1" xmlns="http://www.w3.org/2000/svg" xmlns:xlink="http://www.w3.org/1999/xlink">
                <!-- Generator: Sketch 50.2 (55047) - http://www.bohemiancoding.com/sketch -->
                <desc>Created with Sketch.</desc>
                <defs></defs>
                <g id="Page-1" stroke="none" stroke-width="1" fill="none" fill-rule="evenodd">
                    <g id="Artboard" transform="translate(-159.000000, -258.000000)">
                        <g id="craftremote" transform="translate(159.000000, 258.000000)">
                            <circle id="background" fill="#2C3246" cx="47" cy="47" r="47"></circle>
                            <g id="noun_Antenna_437271_000000" transform="translate(27.000000, 23.000000)" fill="#FFFFFF" fill-rule="nonzero">
                                <path d="M27.4535024,27.6102299 C27.7086882,27.8577794 28.0597755,28 28.4152721,28 C28.7977753,28 29.1587834,27.8385315 29.4040485,27.5567635 C31.0779136,25.6405275 32,23.1955088 32,20.6708252 C32,17.8216004 30.8557972,15.1418642 28.7784848,13.1251114 C26.7017236,11.1094279 23.9393226,10 21,10 C18.0612286,10 15.2982764,11.1094279 13.2220663,13.1251114 C11.1442028,15.1413295 10,17.8205311 10,20.6708252 C10,23.1949742 10.9220864,25.6405275 12.5959515,27.5567635 C13.073805,28.1031902 14.0140796,28.1261807 14.5470488,27.6107646 C15.0662391,27.1076457 15.0943481,26.297095 14.6120854,25.7276778 C13.3978856,24.2905008 12.7563383,22.5421493 12.7563383,20.6718945 C12.7563383,18.5359116 13.6139393,16.5277134 15.170959,15.0162181 C16.7279788,13.5057922 18.7981261,12.6738549 21,12.6738549 C23.2018739,12.6738549 25.2725724,13.5057922 26.8295921,15.0162181 C28.3855096,16.5277134 29.2436617,18.5359116 29.2436617,20.6718945 C29.2436617,22.5421493 28.6026656,24.2905008 27.3884658,25.7266084 C26.9067542,26.2960257 26.9348632,27.1065764 27.4535024,27.6102299 Z" id="Shape"></path>
                                <path d="M34.1420783,6.04324878 C30.3650845,2.14621081 25.3426342,0 20,0 C14.6573658,0 9.63491554,2.14621081 5.85792174,6.04324878 C2.08039341,9.94028675 0,15.1216323 0,20.6327399 C0,25.813534 1.86497755,30.7627225 5.25229848,34.5682212 C5.73444516,35.1097369 6.63459483,35.1229715 7.14346804,34.5974476 C7.65608296,34.0686151 7.66944623,33.2122262 7.17286722,32.6497558 C4.27143468,29.3609579 2.67318794,25.0939026 2.67318794,20.6327399 C2.67318794,15.8583583 4.4756254,11.3696234 7.74855677,7.99314637 C11.0204191,4.61666929 15.3714988,2.75775957 20,2.75775957 C24.6279666,2.75775957 28.9795809,4.61666929 32.2519778,7.99314637 C35.5243746,11.3685206 37.3268121,15.8578068 37.3268121,20.6327399 C37.3268121,25.0939026 35.7285653,29.3609579 32.8271328,32.6497558 C32.3294847,33.2127777 32.343917,34.0686151 32.856532,34.5974476 C33.1088304,34.8577281 33.4418431,35 33.7957024,35 C34.1570451,35 34.5039555,34.8428391 34.7477015,34.5682212 C38.1350225,30.7627225 40,25.8129825 40,20.6327399 C40,15.1205294 37.9190721,9.93918387 34.1420783,6.04324878 Z" id="Shape"></path>
                                <path d="M22.7180093,21.9132732 C22.0831743,20.2483549 21.0560439,20 20.4998851,20 C19.9437262,20 18.9165958,20.2483549 18.2817608,21.9132732 L9.32896006,45.3814301 C8.64420645,47.1763337 9.15641517,48.1022716 9.70552029,48.5630281 C10.4684074,49.2024452 11.5866936,49.1360697 12.8400857,48.3213107 L20.4998851,43.3536592 L28.1591418,48.3213107 C28.8531195,48.7721109 29.493923,49 30.065817,49 C30.5286497,49 30.9535008,48.8489958 31.2937072,48.5630281 C31.8444401,48.1022716 32.3555637,47.1763337 31.67081,45.3825364 L22.7180093,21.9132732 Z M12.2139323,45.449465 L14.498253,39.4601842 L17.9735675,41.714738 L12.2139323,45.449465 Z M15.5009667,36.8328215 L20.4998851,23.7291957 L25.4982609,36.8322684 L20.4998851,40.0758168 L15.5009667,36.8328215 Z M23.0262027,41.714738 L26.5009745,39.4601842 L28.7858378,45.4500181 L23.0262027,41.714738 Z" id="Shape"></path>
                            </g>
                        </g>
                    </g>
                </g>
            </svg>